<svg xmlns="http://www.w3.org/2000/svg" viewBox="0 0 512 512">
  <defs>
    <clipPath id="r"><rect width="512" height="512" rx="112"/></clipPath>
  </defs>
  <g clip-path="url(#r)">
    <rect width="512" height="512" fill="#0f172a"/>
    <rect width="512" height="40" fill="#14b8a6"/>
  </g>
  <rect x="112" y="128" width="288" height="268" rx="28" fill="#1a2540" stroke="#3aa0ff" stroke-width="18"/>
  <path d="M128 296 h256 v64 a16 16 0 0 1-16 16 H144 a16 16 0 0 1-16-16z" fill="#e6b34d"/>
  <rect x="232" y="84" width="48" height="62" rx="10" fill="#3aa0ff"/>
  <line x1="256" y1="128" x2="256" y2="268" stroke="#e7ecf5" stroke-width="16" stroke-linecap="round"/>
  <path d="M256 260c-22 32-36 52-36 70a36 36 0 0 0 72 0c0-18-14-38-36-70z" fill="#e7ecf5"/>
  <path d="M256 288c-12 18-20 28-20 38a20 20 0 0 0 40 0c0-10-8-20-20-38z" fill="#f97316"/>
</svg>
